<mxfile host="app.diagrams.net" modified="2023-06-20T14:10:37.443Z" agent="Mozilla/5.0 (Windows NT 10.0; Win64; x64) AppleWebKit/537.36 (KHTML, like Gecko) Chrome/113.0.0.0 Safari/537.36 OPR/99.0.0.0" etag="FdpT3YJIaTOCyib8v6Qy" version="21.5.0" type="github">
  <diagram name="Página-1" id="qrktSOgnRQbgP1xbRVJV">
    <mxGraphModel dx="3350" dy="2524" grid="1" gridSize="10" guides="1" tooltips="1" connect="1" arrows="1" fold="1" page="1" pageScale="1" pageWidth="827" pageHeight="1169" math="0" shadow="0">
      <root>
        <mxCell id="0" />
        <mxCell id="1" parent="0" />
        <mxCell id="w_QV8lPBq008VbgRlRcz-1" value="&lt;font style=&quot;font-size: 39px;&quot;&gt;Paciente&lt;/font&gt;" style="rounded=0;whiteSpace=wrap;html=1;" vertex="1" parent="1">
          <mxGeometry x="140" y="370" width="450" height="180" as="geometry" />
        </mxCell>
        <mxCell id="w_QV8lPBq008VbgRlRcz-2" value="&lt;p&gt;nombre&lt;/p&gt;&lt;p&gt;&lt;span style=&quot;background-color: initial;&quot;&gt;apellido&lt;/span&gt;&lt;/p&gt;&lt;p&gt;DNI&lt;/p&gt;&lt;p&gt;HC(numero)&lt;/p&gt;&lt;p&gt;fecha de nacimiento&lt;/p&gt;" style="ellipse;whiteSpace=wrap;html=1;" vertex="1" parent="1">
          <mxGeometry x="-60" y="385" width="220" height="150" as="geometry" />
        </mxCell>
        <mxCell id="w_QV8lPBq008VbgRlRcz-3" value="&lt;font style=&quot;font-size: 39px;&quot;&gt;Ingreso&lt;/font&gt;" style="rounded=0;whiteSpace=wrap;html=1;" vertex="1" parent="1">
          <mxGeometry x="140" y="-160" width="450" height="200" as="geometry" />
        </mxCell>
        <mxCell id="w_QV8lPBq008VbgRlRcz-4" value="&lt;div&gt;codigoIngreso&lt;/div&gt;&lt;div&gt;fechaIngreso&lt;/div&gt;&lt;div&gt;edad al ingreso(días, horas y minutos)&lt;/div&gt;&lt;div&gt;lugar de internación (3 opciones)&lt;/div&gt;&lt;div&gt;si procede de un lugar propio:&lt;/div&gt;&lt;div&gt;-Procedencia(opciones listadas)&lt;/div&gt;&lt;div&gt;si procede de otro lugar:&lt;/div&gt;&lt;div&gt;-otros&lt;/div&gt;&lt;div&gt;peso al ingresar(gr)&lt;/div&gt;&lt;div&gt;diagnósticos(listar opciones)(vincular internamente con un código)&lt;/div&gt;&lt;div&gt;tratamientos con oxígeno(**)&lt;/div&gt;&lt;div&gt;tratamientos con medicamento(**)&lt;/div&gt;&lt;div&gt;accesos vasculares(**)&lt;/div&gt;&lt;div&gt;tratamientos quirúrgicos(**)&lt;/div&gt;&lt;div&gt;tratamientos con hemoderivados(**)&lt;/div&gt;&lt;div&gt;tratamientos con nutrición parentenal(**)&lt;/div&gt;&lt;div&gt;tratamientos con hipotermia(**)&lt;/div&gt;&lt;div&gt;tratamientos luminoterapia(**)&lt;/div&gt;" style="ellipse;whiteSpace=wrap;html=1;" vertex="1" parent="1">
          <mxGeometry x="-290" y="-190" width="510" height="280" as="geometry" />
        </mxCell>
        <mxCell id="w_QV8lPBq008VbgRlRcz-6" value="&lt;font style=&quot;font-size: 39px;&quot;&gt;Lugar de internacion&lt;/font&gt;" style="rounded=0;whiteSpace=wrap;html=1;" vertex="1" parent="1">
          <mxGeometry x="140" y="-720" width="450" height="200" as="geometry" />
        </mxCell>
        <mxCell id="w_QV8lPBq008VbgRlRcz-8" value="&lt;font style=&quot;font-size: 39px;&quot;&gt;Egreso&lt;/font&gt;" style="rounded=0;whiteSpace=wrap;html=1;" vertex="1" parent="1">
          <mxGeometry x="990" y="-160" width="450" height="200" as="geometry" />
        </mxCell>
      </root>
    </mxGraphModel>
  </diagram>
</mxfile>
